PathFileType	4	(X/Y/Z)	C:/Users/opensim2020/Desktop/walking_exp_matlab/subject01_walking07_straight_03.trc																																																																																																																															
DataRate	CameraRate	NumFrames	NumMarkers	Units	OrigDataRate	OrigDataStartFrame	OrigNumFrames																																																																																																																											
100	100	4	43	mm	100	2146	220																																																																																																																											
Frame#	Time	LFHD			RFHD			LBHD			RBHD			C7			T10			CLAV			STRN			RBAK			LSHO			LUPA			LELB			LFRM			LWRA			LWRB			LFIN			RSHO			RUPA			RELB			RFRM			RWRA			RWRB			RFIN			LASI			RASI			LPSI			RPSI			LTHI			LKNE			LTIB			LANK			LHEE			LTOE			RTHI			RKNE			RTIB			RANK			RHEE			RTOE			*39			*40			*41			*42		
		X1	Y1	Z1	X2	Y2	Z2	X3	Y3	Z3	X4	Y4	Z4	X5	Y5	Z5	X6	Y6	Z6	X7	Y7	Z7	X8	Y8	Z8	X9	Y9	Z9	X10	Y10	Z10	X11	Y11	Z11	X12	Y12	Z12	X13	Y13	Z13	X14	Y14	Z14	X15	Y15	Z15	X16	Y16	Z16	X17	Y17	Z17	X18	Y18	Z18	X19	Y19	Z19	X20	Y20	Z20	X21	Y21	Z21	X22	Y22	Z22	X23	Y23	Z23	X24	Y24	Z24	X25	Y25	Z25	X26	Y26	Z26	X27	Y27	Z27	X28	Y28	Z28	X29	Y29	Z29	X30	Y30	Z30	X31	Y31	Z31	X32	Y32	Z32	X33	Y33	Z33	X34	Y34	Z34	X35	Y35	Z35	X36	Y36	Z36	X37	Y37	Z37	X38	Y38	Z38	X39	Y39	Z39	X40	Y40	Z40	X41	Y41	Z41	X42	Y42	Z42	X43	Y43	Z43
																																																																																																																																		
111	1.1	13.11568	1662.10974	1393.25964	55.53697	1671.9386	1498.94116	-96.15622	1615.72742	1433.79407	-54.10893	1625.26868	1546.19128	-121.43455	1425.79126	1473.63757	-162.10773	1134.17371	1484.61963	20.92108	1356.88843	1458.72107	60.53875	1200.56396	1455.58093	-169.97231	1236.21399	1561.46265	-52.52489	1384.64026	1304.22327	-113.39605	1202.20557	1230.18738	-153.53673	1060.10767	1241.32922	-151.36084	946.87531	1218.48279	-112.48785	812.40308	1238.94861	-166.53288	825.10492	1214.99158	-144.26826	741.86267	1210.37378	-23.29503	1390.47351	1614.9082	-44.99355	1193.44788	1729.34619	-21.42228	1068.62915	1739.12183	49.15391	967.67163	1764.57983	163.72406	889.21606	1734.18738	127.58591	874.49164	1777.89819	191.72537	819.34845	1772.28113	7.0502	930.91925	1368.57886	8.30336	924.11627	1586.31897	-179.00954	937.75793	1419.62683	-178.06958	941.85992	1563.4425	42.53625	611.11462	1289.12805	75.67177	482.86139	1307.98511	81.1832	299.41357	1289.41858	136.28119	80.76508	1329.2699	107.37768	38.29781	1385.97107	282.21176	83.46165	1314.729	-92.5295	595.74902	1630.68994	-112.39824	437.29379	1601.64026	-196.93895	281.77075	1605.88318	-262.72443	86.52839	1552.57312	-319.14963	57.51289	1504.13477	-129.48372	33.42575	1548.61035	37.58144	1705.00476	1479.86194	1973.15955	1023.32831	-3101.92407	2012.56665	1022.09998	-3140.71289	NaN	NaN	NaN
112	1.11	22.52801	1661.1272	1391.41724	65.02898	1670.896	1497.14246	-86.96547	1615.06067	1431.96606	-44.74413	1624.39478	1544.33838	-112.33105	1424.80627	1471.55847	-152.82184	1133.13379	1482.52148	30.15086	1356.02466	1456.99988	69.84341	1199.75854	1454.14734	-161.0144	1235.32324	1559.32703	-42.99385	1383.6449	1302.32349	-104.07006	1201.24658	1228.40564	-144.63116	1059.24475	1239.84167	-143.07996	946.04492	1217.23425	-104.95016	811.43121	1237.82739	-158.91615	824.38513	1213.90222	-137.2307	740.93188	1209.52026	-14.43863	1389.71851	1613.04834	-35.38968	1192.97473	1727.79236	-11.50604	1068.14819	1737.8501	59.89339	967.70947	1763.23022	174.94475	890.09491	1732.58435	139.26341	875.19379	1776.40515	203.63945	820.53625	1770.6947	17.16524	929.53577	1367.91394	17.6533	923.4682	1585.66223	-169.01604	936.71997	1417.62769	-168.81189	941.25861	1561.45288	51.76905	609.97827	1287.41406	84.90966	481.84998	1306.86194	94.30048	298.52881	1288.53467	153.95903	81.06079	1328.56519	125.57238	38.44088	1384.84851	300.27112	86.7964	1315.19153	-85.85478	595.80737	1630.30884	-107.03531	437.2728	1601.40149	-193.53682	283.0368	1605.78137	-261.86096	88.18553	1552.86072	-318.31851	59.53521	1504.50586	-129.34494	33.37966	1548.71997	47.13927	1704.00439	1478.05334	1973.15466	1023.43982	-3101.97607	2012.53906	1022.06738	-3140.5835	NaN	NaN	NaN
113	1.12	32.04861	1660.20496	1389.53357	74.50361	1669.87476	1495.24854	-77.57631	1614.38928	1430.03552	-35.36582	1623.59583	1542.4303	-103.24886	1423.86536	1469.34631	-143.3511	1132.08899	1480.33923	39.42231	1355.24219	1455.16663	79.23045	1199.0271	1452.65405	-152.1138	1234.43225	1556.98633	-33.45627	1382.66406	1300.30042	-94.57426	1200.21631	1226.49573	-135.55887	1058.43896	1238.26489	-134.37959	945.2099	1215.81543	-96.95142	810.4646	1236.6394	-150.79903	823.59497	1212.64197	-129.59734	740.02417	1208.5802	-5.6862	1388.99292	1611.11646	-26.07447	1192.46606	1725.9563	-1.79746	1067.68213	1736.40625	70.2516	967.64899	1761.71399	185.74762	890.80927	1730.96289	150.31613	875.68658	1774.83875	214.99913	821.46954	1769.06531	27.63484	928.38947	1367.14038	26.48265	922.54004	1585.16345	-158.92036	935.75104	1415.55115	-159.36861	940.45215	1559.28162	62.07293	609.11761	1286.30737	94.56594	480.78033	1305.95093	106.41513	297.63248	1287.90222	169.44238	81.31155	1328.21985	141.75336	38.10892	1384.48462	315.89664	88.9595	1315.29065	-78.94704	595.82385	1629.83618	-101.23483	437.23062	1601.18079	-189.92265	284.00317	1605.48926	-260.91556	90.03881	1553.16248	-317.74866	62.07574	1504.9834	-129.23122	33.33285	1548.81055	56.6758	1703.03564	1476.24805	1973.10425	1023.39557	-3102.0791	2012.55078	1021.99487	-3140.66089	NaN	NaN	NaN
114	1.13	41.65586	1659.36658	1387.57275	83.97338	1668.86951	1493.33655	-68.19952	1613.69885	1427.99133	-26.07063	1622.79236	1540.3844	-94.152	1422.89697	1467.02686	-133.79796	1131.0708	1478.19739	48.74152	1354.50073	1453.23914	88.7379	1198.3717	1451.04077	-143.01064	1233.47119	1554.49585	-23.93154	1381.67053	1298.18127	-84.89042	1199.29993	1224.3988	-126.15635	1057.53394	1236.45203	-125.31728	944.24554	1214.19604	-88.30251	809.35022	1235.13354	-142.12727	822.66852	1211.24524	-121.39457	739.07404	1207.60486	3.07044	1388.33618	1609.06848	-16.98691	1191.96118	1724.01025	7.71646	1067.27185	1734.85449	80.31747	967.59656	1760.16138	196.213	891.354	1729.29138	160.89711	876.09839	1773.21204	225.95366	822.38354	1767.53601	38.11246	927.27899	1366.2854	35.86892	921.84497	1584.31299	-148.72166	934.84033	1413.54028	-149.75017	939.9151	1557.13965	73.28304	608.54028	1285.91919	104.70674	479.74936	1305.28284	117.74567	296.77603	1287.48926	182.73596	80.79891	1327.98413	155.19122	37.47903	1384.17883	329.15051	89.77452	1315.28479	-71.60085	595.62207	1629.22424	-95.05736	437.01376	1600.92236	-185.90306	285.13931	1605.38379	-259.66696	92.075	1553.70178	-317.32938	65.51656	1505.44055	-129.06866	33.3189	1548.99597	66.20152	1702.08765	1474.32239	1973.15442	1023.63354	-3101.79688	2012.60864	1022.05481	-3140.6814	NaN	NaN	NaN
